<mxfile host="app.diagrams.net" modified="2023-10-17T04:56:56.146Z" agent="Mozilla/5.0 (Windows NT 10.0; Win64; x64; rv:109.0) Gecko/20100101 Firefox/118.0" etag="udd2sKSxYt5eJMfyeeDj" version="22.0.4" type="github">
  <diagram name="Page-1" id="y7x7uEiWC5B7kakjc_xF">
    <mxGraphModel dx="733" dy="392" grid="1" gridSize="10" guides="1" tooltips="1" connect="1" arrows="1" fold="1" page="1" pageScale="1" pageWidth="850" pageHeight="1100" math="0" shadow="0">
      <root>
        <mxCell id="0" />
        <mxCell id="1" parent="0" />
        <mxCell id="SVy1mgNFsp057uZ_BlMZ-3" value="" style="edgeStyle=orthogonalEdgeStyle;rounded=0;orthogonalLoop=1;jettySize=auto;html=1;strokeWidth=2;" edge="1" parent="1" source="SVy1mgNFsp057uZ_BlMZ-1" target="SVy1mgNFsp057uZ_BlMZ-2">
          <mxGeometry relative="1" as="geometry" />
        </mxCell>
        <mxCell id="SVy1mgNFsp057uZ_BlMZ-1" value="&lt;b&gt;&lt;font style=&quot;font-size: 13px;&quot;&gt;START&lt;/font&gt;&lt;/b&gt;" style="rounded=1;whiteSpace=wrap;html=1;arcSize=50;strokeWidth=2;" vertex="1" parent="1">
          <mxGeometry x="360" y="20" width="120" height="60" as="geometry" />
        </mxCell>
        <mxCell id="SVy1mgNFsp057uZ_BlMZ-5" value="" style="edgeStyle=orthogonalEdgeStyle;rounded=0;orthogonalLoop=1;jettySize=auto;html=1;strokeWidth=2;" edge="1" parent="1" source="SVy1mgNFsp057uZ_BlMZ-2" target="SVy1mgNFsp057uZ_BlMZ-4">
          <mxGeometry relative="1" as="geometry" />
        </mxCell>
        <mxCell id="SVy1mgNFsp057uZ_BlMZ-2" value="&lt;div&gt;&lt;b&gt;LA&lt;/b&gt;&lt;/div&gt;&lt;div&gt;&lt;b&gt;a&lt;/b&gt;&lt;/div&gt;&lt;div&gt;&lt;b&gt;t&lt;br&gt;&lt;/b&gt;&lt;/div&gt;" style="shape=parallelogram;perimeter=parallelogramPerimeter;whiteSpace=wrap;html=1;fixedSize=1;rounded=1;arcSize=27;strokeWidth=2;" vertex="1" parent="1">
          <mxGeometry x="360" y="140" width="120" height="60" as="geometry" />
        </mxCell>
        <mxCell id="SVy1mgNFsp057uZ_BlMZ-7" value="" style="edgeStyle=orthogonalEdgeStyle;rounded=0;orthogonalLoop=1;jettySize=auto;html=1;fontStyle=1;strokeWidth=2;" edge="1" parent="1" source="SVy1mgNFsp057uZ_BlMZ-4" target="SVy1mgNFsp057uZ_BlMZ-6">
          <mxGeometry relative="1" as="geometry" />
        </mxCell>
        <mxCell id="SVy1mgNFsp057uZ_BlMZ-4" value="&lt;b&gt;La = 1/2 x a t&lt;/b&gt;" style="rhombus;whiteSpace=wrap;html=1;rounded=1;arcSize=0;strokeWidth=2;" vertex="1" parent="1">
          <mxGeometry x="375" y="240" width="90" height="80" as="geometry" />
        </mxCell>
        <mxCell id="SVy1mgNFsp057uZ_BlMZ-9" value="" style="edgeStyle=orthogonalEdgeStyle;rounded=0;orthogonalLoop=1;jettySize=auto;html=1;" edge="1" parent="1" source="SVy1mgNFsp057uZ_BlMZ-6" target="SVy1mgNFsp057uZ_BlMZ-8">
          <mxGeometry relative="1" as="geometry" />
        </mxCell>
        <mxCell id="SVy1mgNFsp057uZ_BlMZ-6" value="&lt;b&gt;1/2 x a x t&lt;/b&gt;" style="whiteSpace=wrap;html=1;rounded=1;arcSize=0;strokeWidth=2;" vertex="1" parent="1">
          <mxGeometry x="365" y="370" width="110" height="50" as="geometry" />
        </mxCell>
        <mxCell id="SVy1mgNFsp057uZ_BlMZ-11" value="" style="edgeStyle=orthogonalEdgeStyle;rounded=0;orthogonalLoop=1;jettySize=auto;html=1;" edge="1" parent="1" source="SVy1mgNFsp057uZ_BlMZ-8" target="SVy1mgNFsp057uZ_BlMZ-10">
          <mxGeometry relative="1" as="geometry" />
        </mxCell>
        <mxCell id="SVy1mgNFsp057uZ_BlMZ-8" value="&lt;b&gt;LA&lt;/b&gt;" style="shape=parallelogram;perimeter=parallelogramPerimeter;whiteSpace=wrap;html=1;fixedSize=1;rounded=1;arcSize=0;strokeWidth=2;" vertex="1" parent="1">
          <mxGeometry x="360" y="470" width="120" height="60" as="geometry" />
        </mxCell>
        <mxCell id="SVy1mgNFsp057uZ_BlMZ-10" value="&lt;b&gt;END&lt;/b&gt;" style="whiteSpace=wrap;html=1;rounded=1;arcSize=50;strokeWidth=2;" vertex="1" parent="1">
          <mxGeometry x="360" y="620" width="120" height="60" as="geometry" />
        </mxCell>
      </root>
    </mxGraphModel>
  </diagram>
</mxfile>
